<svg width="32" height="24" viewBox="0 0 32 24" fill="none" xmlns="http://www.w3.org/2000/svg">
<g clip-path="url(#clip0_1661_923)">
<rect width="32" height="24" fill="white"/>
<path fill-rule="evenodd" clip-rule="evenodd" d="M0 0V24H32V0H0Z" fill="#4857A1"/>
<mask id="mask0_1661_923" style="mask-type:luminance" maskUnits="userSpaceOnUse" x="0" y="0" width="32" height="24">
<path fill-rule="evenodd" clip-rule="evenodd" d="M0 0V24H32V0H0Z" fill="white"/>
</mask>
<g mask="url(#mask0_1661_923)">
<path fill-rule="evenodd" clip-rule="evenodd" d="M0 0V8H32V0H0Z" fill="#C51918"/>
<path fill-rule="evenodd" clip-rule="evenodd" d="M0 16V24H32V16H0Z" fill="#F7FCFF"/>
<path fill-rule="evenodd" clip-rule="evenodd" d="M11.4558 3.8032L11.3427 3.34973C11.4391 3.37936 11.5439 3.40976 11.6545 3.44102L11.6534 3.43523C12.9734 3.55497 15.014 4.23826 15.3938 4.964C15.5406 5.2445 15.3946 5.48363 15.2033 5.797C15.1747 5.84383 15.1451 5.89231 15.1153 5.94284C15.0191 6.10602 14.9319 6.262 14.8497 6.40901C14.5532 6.93939 14.322 7.35288 13.9701 7.56528L13.9771 8.76626L8.0816 8.71557L8.07396 7.50246C7.77258 7.27677 7.557 6.8912 7.28741 6.40901C7.20522 6.262 7.118 6.10602 7.02181 5.94284C6.99202 5.89231 6.96242 5.84383 6.93383 5.797C6.7425 5.48363 6.59651 5.2445 6.74332 4.964C7.02891 4.41835 8.32278 3.88768 9.50837 3.60702C9.74165 3.52406 9.98545 3.44654 10.2272 3.37232L10.335 3.4504C10.4288 3.43761 10.5196 3.42718 10.6067 3.41927L10.7426 3.72217H11.2226C11.2226 3.72217 11.5125 4.58271 11.5125 5.06062C11.5125 5.53853 11.2226 5.93374 11.2226 5.93374V6.26363C11.2729 6.26782 11.3257 6.27294 11.3806 6.27886C11.381 6.25024 11.3838 6.22011 11.3892 6.18926C11.417 6.03161 11.5035 5.91508 11.5823 5.92898C11.6611 5.94287 11.7025 6.08194 11.6747 6.23959C11.6702 6.26523 11.6641 6.28977 11.6568 6.31285C11.9678 6.35514 12.3163 6.41419 12.6465 6.47493C12.7722 6.23125 12.9255 5.99048 13.0718 5.76059C13.4501 5.16639 13.7821 4.6449 13.4723 4.33359C13.4135 4.27455 13.3072 4.21963 13.17 4.16877C12.7167 4.05597 12.2231 3.96897 11.7435 3.92546L11.729 3.84664C11.6333 3.83109 11.5414 3.81661 11.4558 3.8032ZM13.696 6.68268C13.8636 6.71799 13.9653 6.74045 13.9653 6.74045L13.9663 6.91232C14.5504 6.46213 14.9637 5.46464 15.0009 5.13787C15.0234 4.94087 14.711 4.71375 14.2211 4.50797C14.453 4.94762 14.1425 5.38392 13.7528 5.93147C13.6064 6.13725 13.4488 6.35874 13.3046 6.60203L13.4476 6.63109C13.4464 6.58591 13.4523 6.5351 13.4663 6.48288C13.5078 6.32825 13.604 6.21969 13.6813 6.24041C13.7586 6.26113 13.7877 6.40327 13.7463 6.5579C13.7338 6.60442 13.7164 6.64676 13.696 6.68268ZM10.6835 6.26586V5.89846C10.6835 5.89846 10.4326 5.61798 10.3937 5.03383C10.3659 4.61597 10.452 4.12475 10.5033 3.87894C10.1289 3.92642 9.73411 4.00017 9.35189 4.09074C9.09828 4.16215 8.89618 4.24302 8.80603 4.33359C8.49617 4.6449 8.82818 5.16639 9.20648 5.76059L9.20649 5.7606L9.20649 5.7606L9.2065 5.76062C9.34786 5.98266 9.49569 6.21485 9.6189 6.45003C9.83199 6.40389 10.0461 6.36118 10.2461 6.3272C10.2374 6.2963 10.2313 6.26257 10.2282 6.22706C10.2142 6.06759 10.2675 5.93265 10.3473 5.92568C10.427 5.9187 10.503 6.04232 10.5169 6.2018C10.5194 6.2307 10.5198 6.2588 10.5181 6.28548C10.5755 6.27778 10.6308 6.27119 10.6835 6.26586ZM8.52546 5.93148L8.52546 5.93148L8.52546 5.93147C8.12701 5.37154 7.81135 4.92795 8.07372 4.47814C7.50021 4.70021 7.11384 4.94139 7.13624 5.13787C7.17144 5.44661 7.5423 6.3541 8.07577 6.833C8.11292 6.82264 8.3192 6.76541 8.61036 6.69056C8.58801 6.65567 8.56828 6.61414 8.55334 6.56814C8.50387 6.41589 8.52548 6.27242 8.6016 6.24768C8.67773 6.22295 8.77954 6.32632 8.82901 6.47857C8.84608 6.53111 8.85469 6.58261 8.85551 6.62854L8.97235 6.59972C8.82851 6.35735 8.67144 6.13661 8.52547 5.93149L8.52547 5.93149L8.52546 5.93148Z" fill="#F6C540"/>
<path fill-rule="evenodd" clip-rule="evenodd" d="M11.6522 3.50597C11.6522 3.85745 11.3602 4.14238 11 4.14238C10.6398 4.14238 10.3478 3.85745 10.3478 3.50597C10.3478 3.15449 10.6398 2.86957 11 2.86957C11.3602 2.86957 11.6522 3.15449 11.6522 3.50597ZM11 8.23188C11.2801 8.23188 11.5072 8.10211 11.5072 7.94203C11.5072 7.78195 11.2801 7.65217 11 7.65217C10.7199 7.65217 10.4928 7.78195 10.4928 7.94203C10.4928 8.10211 10.7199 8.23188 11 8.23188ZM8.46377 8.15942C8.46377 8.27948 8.36644 8.37681 8.24638 8.37681C8.12631 8.37681 8.02899 8.27948 8.02899 8.15942C8.02899 8.03936 8.12631 7.94203 8.24638 7.94203C8.36644 7.94203 8.46377 8.03936 8.46377 8.15942ZM14.2609 8.15942C14.2609 8.27948 14.1635 8.37681 14.0435 8.37681C13.9234 8.37681 13.8261 8.27948 13.8261 8.15942C13.8261 8.03936 13.9234 7.94203 14.0435 7.94203C14.1635 7.94203 14.2609 8.03936 14.2609 8.15942Z" fill="#2E42A5"/>
<path fill-rule="evenodd" clip-rule="evenodd" d="M9.91304 8.01449C9.91304 8.13455 9.75083 8.23188 9.55072 8.23188C9.35062 8.23188 9.18841 8.13455 9.18841 8.01449C9.18841 7.89443 9.35062 7.7971 9.55072 7.7971C9.75083 7.7971 9.91304 7.89443 9.91304 8.01449ZM12.9565 8.01449C12.9565 8.13455 12.7943 8.23188 12.5942 8.23188C12.3941 8.23188 12.2319 8.13455 12.2319 8.01449C12.2319 7.89443 12.3941 7.7971 12.5942 7.7971C12.7943 7.7971 12.9565 7.89443 12.9565 8.01449Z" fill="#C5363C"/>
<path fill-rule="evenodd" clip-rule="evenodd" d="M12.2319 6.2029C12.2319 6.36298 12.167 6.49275 12.087 6.49275C12.0069 6.49275 11.942 6.36298 11.942 6.2029C11.942 6.04282 12.0069 5.91304 12.087 5.91304C12.167 5.91304 12.2319 6.04282 12.2319 6.2029ZM10.0509 6.15811C10.1003 6.31036 10.0787 6.45383 10.0026 6.47857C9.92649 6.5033 9.82468 6.39993 9.77521 6.24768C9.72574 6.09544 9.74735 5.95196 9.82347 5.92723C9.8996 5.9025 10.0014 6.00587 10.0509 6.15811ZM8.34596 6.94395C8.42208 6.91921 8.44369 6.77574 8.39422 6.62349C8.34476 6.47125 8.24294 6.36788 8.16682 6.39261C8.0907 6.41734 8.06909 6.56082 8.11856 6.71306C8.16802 6.86531 8.26984 6.96868 8.34596 6.94395ZM14.0806 6.74724C13.9957 6.88299 13.8719 6.95866 13.8041 6.91625C13.7362 6.87383 13.7499 6.72939 13.8348 6.59364C13.9196 6.45788 14.0434 6.38221 14.1113 6.42463C14.1791 6.46704 14.1654 6.61148 14.0806 6.74724Z" fill="#F7FCFF"/>
<path fill-rule="evenodd" clip-rule="evenodd" d="M9.76904 3.79235C9.80946 3.82177 9.85922 3.83913 9.91304 3.83913C10.0483 3.83913 10.158 3.72947 10.158 3.5942C10.158 3.45893 10.0483 3.34928 9.91304 3.34928C9.81711 3.34928 9.73407 3.40442 9.69387 3.48475C9.65346 3.45532 9.60369 3.43796 9.54987 3.43796C9.46358 3.43796 9.3877 3.48259 9.34408 3.55003C9.30176 3.51515 9.24753 3.4942 9.18841 3.4942C9.05314 3.4942 8.94348 3.60386 8.94348 3.73913C8.94348 3.74667 8.94382 3.75413 8.94449 3.7615C8.89959 3.70575 8.83077 3.67008 8.75362 3.67008C8.63102 3.67008 8.52946 3.76016 8.51151 3.87775C8.46667 3.8207 8.39703 3.78406 8.31884 3.78406C8.2013 3.78406 8.10309 3.86686 8.07937 3.97732C8.03915 3.94837 7.98979 3.93132 7.93646 3.93132C7.82792 3.93132 7.73587 4.00192 7.70373 4.09971C7.67077 4.0832 7.63357 4.07391 7.5942 4.07391C7.47335 4.07391 7.37294 4.16144 7.35291 4.27656C7.33721 4.27341 7.32097 4.27175 7.30435 4.27175C7.17037 4.27175 7.06151 4.37933 7.05945 4.51281C7.04488 4.51011 7.02985 4.5087 7.01449 4.5087C6.87922 4.5087 6.76957 4.61835 6.76957 4.75362C6.76957 4.77077 6.77133 4.78751 6.77468 4.80367C6.75853 4.80031 6.74179 4.79855 6.72464 4.79855C6.58937 4.79855 6.47971 4.90821 6.47971 5.04348C6.47971 5.14625 6.54301 5.23424 6.63275 5.27059C6.62746 5.29061 6.62464 5.31164 6.62464 5.33333C6.62464 5.43611 6.68794 5.5241 6.77768 5.56044C6.77238 5.58047 6.76957 5.6015 6.76957 5.62319C6.76957 5.75524 6.87407 5.86289 7.00489 5.86793C6.94973 5.91284 6.91449 5.98129 6.91449 6.05797C6.91449 6.19324 7.02415 6.3029 7.15942 6.3029C7.29469 6.3029 7.40435 6.19324 7.40435 6.05797C7.40435 5.92592 7.29984 5.81827 7.16902 5.81323C7.22418 5.76832 7.25942 5.69987 7.25942 5.62319C7.25942 5.52041 7.19612 5.43243 7.10638 5.39608C7.11167 5.37605 7.11449 5.35502 7.11449 5.33333C7.11449 5.23056 7.05119 5.14257 6.96145 5.10623C6.96675 5.0862 6.96957 5.06517 6.96957 5.04348C6.96957 5.02633 6.9678 5.00959 6.96445 4.99343C6.9806 4.99679 6.99734 4.99855 7.01449 4.99855C7.14847 4.99855 7.25733 4.89098 7.25939 4.75749C7.27396 4.76019 7.28899 4.7616 7.30435 4.7616C7.4252 4.7616 7.52561 4.67408 7.54564 4.55895C7.56134 4.56211 7.57758 4.56377 7.5942 4.56377C7.70274 4.56377 7.79479 4.49317 7.82693 4.39538C7.85989 4.41189 7.89709 4.42118 7.93646 4.42118C7.99019 4.42118 8.03989 4.40387 8.08027 4.37453C8.08789 4.40729 8.10208 4.43752 8.12137 4.46377C8.09154 4.50435 8.07391 4.55446 8.07391 4.6087C8.07391 4.74075 8.17842 4.8484 8.30924 4.85344C8.25408 4.89835 8.21884 4.9668 8.21884 5.04348C8.21884 5.14625 8.28214 5.23424 8.37188 5.27059C8.36659 5.29061 8.36377 5.31164 8.36377 5.33333C8.36377 5.43611 8.42707 5.5241 8.51681 5.56044C8.51152 5.58047 8.5087 5.6015 8.5087 5.62319C8.5087 5.75846 8.61835 5.86812 8.75362 5.86812C8.88889 5.86812 8.99855 5.75846 8.99855 5.62319C8.99855 5.52041 8.93525 5.43243 8.84551 5.39608C8.8508 5.37605 8.85362 5.35502 8.85362 5.33333C8.85362 5.23056 8.79032 5.14257 8.70058 5.10623C8.70588 5.0862 8.7087 5.06517 8.7087 5.04348C8.7087 4.91142 8.60419 4.80378 8.47337 4.79874C8.52853 4.75383 8.56377 4.68538 8.56377 4.6087C8.56377 4.55446 8.54614 4.50435 8.51631 4.46377C8.54614 4.42319 8.56377 4.37307 8.56377 4.31884C8.56377 4.26461 8.54614 4.2145 8.51631 4.17391C8.53917 4.14281 8.55487 4.10611 8.56095 4.06624C8.6058 4.12329 8.67543 4.15994 8.75362 4.15994C8.88889 4.15994 8.99855 4.05028 8.99855 3.91501C8.99855 3.90747 8.99821 3.90001 8.99754 3.89264C9.04244 3.94839 9.11126 3.98406 9.18841 3.98406C9.2747 3.98406 9.35057 3.93943 9.3942 3.87199C9.43652 3.90687 9.49075 3.92782 9.54987 3.92782C9.6458 3.92782 9.72885 3.87267 9.76904 3.79235ZM8.31884 4.27391C8.39988 4.27391 8.47173 4.23456 8.51631 4.17391C8.47173 4.11327 8.39988 4.07391 8.31884 4.07391C8.34365 4.07391 8.36377 4.0538 8.36377 4.02899C8.36377 4.00417 8.34365 3.98406 8.31884 3.98406C8.29403 3.98406 8.27391 4.00417 8.27391 4.02899C8.27391 4.0538 8.29403 4.07391 8.31884 4.07391C8.2651 4.07391 8.21541 4.09122 8.17503 4.12056C8.16139 4.06193 8.12671 4.01139 8.07937 3.97732C8.0758 3.99397 8.07391 4.01126 8.07391 4.02899C8.07391 4.08322 8.09154 4.13333 8.12137 4.17391C8.09154 4.2145 8.07391 4.26461 8.07391 4.31884C8.07391 4.338 8.07611 4.35664 8.08027 4.37453C8.12822 4.33969 8.16305 4.28788 8.17592 4.22792C8.21615 4.25686 8.2655 4.27391 8.31884 4.27391ZM8.31884 4.36377C8.2378 4.36377 8.16596 4.40313 8.12137 4.46377C8.16596 4.52441 8.2378 4.56377 8.31884 4.56377C8.29403 4.56377 8.27391 4.58388 8.27391 4.6087C8.27391 4.63351 8.29403 4.65362 8.31884 4.65362C8.34365 4.65362 8.36377 4.63351 8.36377 4.6087C8.36377 4.58388 8.34365 4.56377 8.31884 4.56377C8.39988 4.56377 8.47173 4.52441 8.51631 4.46377C8.47173 4.40313 8.39988 4.36377 8.31884 4.36377ZM8.31884 4.36377C8.34365 4.36377 8.36377 4.34365 8.36377 4.31884C8.36377 4.29403 8.34365 4.27391 8.31884 4.27391C8.29403 4.27391 8.27391 4.29403 8.27391 4.31884C8.27391 4.34365 8.29403 4.36377 8.31884 4.36377ZM8.17592 4.22792C8.15504 4.21288 8.13661 4.19464 8.12137 4.17391C8.13639 4.15348 8.15451 4.13547 8.17503 4.12056C8.17918 4.13845 8.18138 4.15709 8.18138 4.17625C8.18138 4.19397 8.1795 4.21126 8.17592 4.22792ZM8.84551 5.39608C8.81714 5.38459 8.78612 5.37826 8.75362 5.37826C8.64004 5.37826 8.54452 5.45557 8.51681 5.56044C8.54518 5.57193 8.5762 5.57826 8.6087 5.57826C8.72228 5.57826 8.8178 5.50095 8.84551 5.39608ZM8.70058 5.10623C8.67221 5.09473 8.64119 5.08841 8.6087 5.08841C8.49512 5.08841 8.39959 5.16572 8.37188 5.27059C8.40025 5.28208 8.43127 5.28841 8.46377 5.28841C8.57735 5.28841 8.67287 5.2111 8.70058 5.10623ZM8.47337 4.79874L8.46377 4.79855C8.40518 4.79855 8.35139 4.81912 8.30924 4.85344L8.31884 4.85362C8.37743 4.85362 8.43122 4.83305 8.47337 4.79874ZM7.16902 5.81323L7.15942 5.81304C7.10083 5.81304 7.04704 5.83362 7.00489 5.86793L7.01449 5.86812C7.07308 5.86812 7.12687 5.84754 7.16902 5.81323ZM7.10638 5.39608C7.07867 5.50095 6.98314 5.57826 6.86957 5.57826C6.83707 5.57826 6.80605 5.57193 6.77768 5.56044C6.80539 5.45557 6.90091 5.37826 7.01449 5.37826C7.04699 5.37826 7.07801 5.38459 7.10638 5.39608ZM6.96145 5.10623C6.93374 5.2111 6.83822 5.28841 6.72464 5.28841C6.69214 5.28841 6.66112 5.28208 6.63275 5.27059C6.66046 5.16572 6.75599 5.08841 6.86957 5.08841C6.90206 5.08841 6.93308 5.09473 6.96145 5.10623ZM6.77468 4.80367C6.79443 4.89878 6.86934 4.97369 6.96445 4.99343C6.9447 4.89832 6.8698 4.82341 6.77468 4.80367ZM7.25939 4.75749C7.14559 4.73638 7.05942 4.63659 7.05942 4.51668L7.05945 4.51281C7.17325 4.53392 7.25942 4.63371 7.25942 4.75362L7.25939 4.75749ZM7.54564 4.55895C7.43363 4.53642 7.34928 4.43748 7.34928 4.31884C7.34928 4.30442 7.35052 4.2903 7.35291 4.27656C7.46492 4.29909 7.54928 4.39803 7.54928 4.51668C7.54928 4.53109 7.54803 4.54522 7.54564 4.55895ZM7.82693 4.39538C7.74665 4.35518 7.69153 4.27215 7.69153 4.17625C7.69153 4.14952 7.69581 4.12379 7.70373 4.09971C7.78401 4.13991 7.83913 4.22294 7.83913 4.31884C7.83913 4.34557 7.83485 4.3713 7.82693 4.39538ZM8.56095 4.06624C8.52822 4.0246 8.5087 3.97208 8.5087 3.91501C8.5087 3.90234 8.50966 3.8899 8.51151 3.87775C8.54424 3.91939 8.56377 3.97191 8.56377 4.02899C8.56377 4.04165 8.56281 4.0541 8.56095 4.06624ZM8.94449 3.7615C8.94896 3.81091 8.96811 3.85609 8.99754 3.89264C8.99307 3.84323 8.97392 3.79805 8.94449 3.7615ZM9.3942 3.87199C9.33969 3.82707 9.30494 3.75904 9.30494 3.68289C9.30494 3.63392 9.31932 3.5883 9.34408 3.55003C9.39858 3.59495 9.43333 3.66298 9.43333 3.73913C9.43333 3.7881 9.41896 3.83372 9.3942 3.87199ZM9.76904 3.79235C9.70787 3.74782 9.66812 3.67565 9.66812 3.5942C9.66812 3.55486 9.67739 3.51769 9.69387 3.48475C9.75504 3.52928 9.7948 3.60144 9.7948 3.68289C9.7948 3.72223 9.78552 3.75941 9.76904 3.79235ZM7.30435 4.5616C7.32916 4.5616 7.34928 4.54149 7.34928 4.51668C7.34928 4.49186 7.32916 4.47175 7.30435 4.47175C7.27953 4.47175 7.25942 4.49186 7.25942 4.51668C7.25942 4.54149 7.27953 4.5616 7.30435 4.5616ZM7.01449 4.79855C7.03931 4.79855 7.05942 4.77844 7.05942 4.75362C7.05942 4.72881 7.03931 4.7087 7.01449 4.7087C6.98968 4.7087 6.96957 4.72881 6.96957 4.75362C6.96957 4.77844 6.98968 4.79855 7.01449 4.79855ZM6.72464 5.08841C6.74945 5.08841 6.76957 5.06829 6.76957 5.04348C6.76957 5.01867 6.74945 4.99855 6.72464 4.99855C6.69982 4.99855 6.67971 5.01867 6.67971 5.04348C6.67971 5.06829 6.69982 5.08841 6.72464 5.08841ZM6.86957 5.37826C6.89438 5.37826 6.91449 5.35815 6.91449 5.33333C6.91449 5.30852 6.89438 5.28841 6.86957 5.28841C6.84475 5.28841 6.82464 5.30852 6.82464 5.33333C6.82464 5.35815 6.84475 5.37826 6.86957 5.37826ZM7.01449 5.66812C7.03931 5.66812 7.05942 5.648 7.05942 5.62319C7.05942 5.59838 7.03931 5.57826 7.01449 5.57826C6.98968 5.57826 6.96957 5.59838 6.96957 5.62319C6.96957 5.648 6.98968 5.66812 7.01449 5.66812ZM7.20435 6.05797C7.20435 6.08278 7.18423 6.1029 7.15942 6.1029C7.13461 6.1029 7.11449 6.08278 7.11449 6.05797C7.11449 6.03316 7.13461 6.01304 7.15942 6.01304C7.18423 6.01304 7.20435 6.03316 7.20435 6.05797ZM7.5942 4.36377C7.61902 4.36377 7.63913 4.34365 7.63913 4.31884C7.63913 4.29403 7.61902 4.27391 7.5942 4.27391C7.56939 4.27391 7.54928 4.29403 7.54928 4.31884C7.54928 4.34365 7.56939 4.36377 7.5942 4.36377ZM7.93646 4.22118C7.96127 4.22118 7.98138 4.20106 7.98138 4.17625C7.98138 4.15144 7.96127 4.13132 7.93646 4.13132C7.91164 4.13132 7.89153 4.15144 7.89153 4.17625C7.89153 4.20106 7.91164 4.22118 7.93646 4.22118ZM8.75362 3.95994C8.77844 3.95994 8.79855 3.93982 8.79855 3.91501C8.79855 3.8902 8.77844 3.87008 8.75362 3.87008C8.72881 3.87008 8.7087 3.8902 8.7087 3.91501C8.7087 3.93982 8.72881 3.95994 8.75362 3.95994ZM9.18841 3.78406C9.21322 3.78406 9.23333 3.76394 9.23333 3.73913C9.23333 3.71432 9.21322 3.6942 9.18841 3.6942C9.16359 3.6942 9.14348 3.71432 9.14348 3.73913C9.14348 3.76394 9.16359 3.78406 9.18841 3.78406ZM9.54987 3.72782C9.57468 3.72782 9.5948 3.7077 9.5948 3.68289C9.5948 3.65808 9.57468 3.63796 9.54987 3.63796C9.52506 3.63796 9.50494 3.65808 9.50494 3.68289C9.50494 3.7077 9.52506 3.72782 9.54987 3.72782ZM9.91304 3.63913C9.93786 3.63913 9.95797 3.61902 9.95797 3.5942C9.95797 3.56939 9.93786 3.54928 9.91304 3.54928C9.88823 3.54928 9.86812 3.56939 9.86812 3.5942C9.86812 3.61902 9.88823 3.63913 9.91304 3.63913ZM8.46377 5.08841C8.48858 5.08841 8.5087 5.06829 8.5087 5.04348C8.5087 5.01867 8.48858 4.99855 8.46377 4.99855C8.43896 4.99855 8.41884 5.01867 8.41884 5.04348C8.41884 5.06829 8.43896 5.08841 8.46377 5.08841ZM8.6087 5.37826C8.63351 5.37826 8.65362 5.35815 8.65362 5.33333C8.65362 5.30852 8.63351 5.28841 8.6087 5.28841C8.58388 5.28841 8.56377 5.30852 8.56377 5.33333C8.56377 5.35815 8.58388 5.37826 8.6087 5.37826ZM8.75362 5.66812C8.77844 5.66812 8.79855 5.648 8.79855 5.62319C8.79855 5.59838 8.77844 5.57826 8.75362 5.57826C8.72881 5.57826 8.7087 5.59838 8.7087 5.62319C8.7087 5.648 8.72881 5.66812 8.75362 5.66812ZM15.1304 6.1029C15.1552 6.1029 15.1754 6.08278 15.1754 6.05797C15.1754 6.03316 15.1552 6.01304 15.1304 6.01304C15.1056 6.01304 15.0855 6.03316 15.0855 6.05797C15.0855 6.08278 15.1056 6.1029 15.1304 6.1029ZM14.8855 6.05797C14.8855 6.19324 14.9952 6.3029 15.1304 6.3029C15.2657 6.3029 15.3754 6.19324 15.3754 6.05797C15.3754 5.98129 15.3401 5.91284 15.285 5.86793C15.4158 5.86289 15.5203 5.75525 15.5203 5.62319C15.5203 5.6015 15.5175 5.58046 15.5122 5.56044C15.6019 5.52409 15.6652 5.43611 15.6652 5.33333C15.6652 5.31164 15.6624 5.29061 15.6571 5.27058C15.7468 5.23424 15.8101 5.14625 15.8101 5.04348C15.8101 4.90821 15.7005 4.79855 15.5652 4.79855C15.5481 4.79855 15.5313 4.80031 15.5152 4.80367C15.5185 4.78751 15.5203 4.77077 15.5203 4.75362C15.5203 4.61835 15.4106 4.5087 15.2754 4.5087C15.26 4.5087 15.245 4.51011 15.2304 4.51281C15.2283 4.37932 15.1195 4.27175 14.9855 4.27175C14.9689 4.27175 14.9526 4.27341 14.9369 4.27656C14.9169 4.16144 14.8165 4.07391 14.6957 4.07391C14.6563 4.07391 14.6191 4.0832 14.5861 4.09971C14.554 4.00192 14.4619 3.93132 14.3534 3.93132C14.3001 3.93132 14.2507 3.94837 14.2105 3.97732C14.1868 3.86686 14.0886 3.78406 13.971 3.78406C13.8928 3.78406 13.8232 3.8207 13.7783 3.87775C13.7604 3.76016 13.6588 3.67008 13.5362 3.67008C13.4591 3.67008 13.3903 3.70575 13.3454 3.7615C13.346 3.75413 13.3464 3.74667 13.3464 3.73913C13.3464 3.60386 13.2367 3.4942 13.1014 3.4942C13.0423 3.4942 12.9881 3.51515 12.9458 3.55003C12.9022 3.48259 12.8263 3.43796 12.74 3.43796C12.6862 3.43796 12.6364 3.45532 12.596 3.48475C12.5558 3.40443 12.4727 3.34928 12.3768 3.34928C12.2415 3.34928 12.1319 3.45893 12.1319 3.5942C12.1319 3.72947 12.2415 3.83913 12.3768 3.83913C12.4306 3.83913 12.4804 3.82177 12.5208 3.79235C12.561 3.87267 12.6441 3.92782 12.74 3.92782C12.7991 3.92782 12.8533 3.90687 12.8957 3.87199C12.9393 3.93943 13.0152 3.98406 13.1014 3.98406C13.1786 3.98406 13.2474 3.94839 13.2923 3.89264C13.2916 3.90001 13.2913 3.90747 13.2913 3.91501C13.2913 4.05028 13.401 4.15994 13.5362 4.15994C13.6144 4.15994 13.6841 4.12329 13.7289 4.06624C13.735 4.10611 13.7507 4.14281 13.7735 4.17391C13.7437 4.2145 13.7261 4.26461 13.7261 4.31884C13.7261 4.37307 13.7437 4.42319 13.7735 4.46377C13.7437 4.50435 13.7261 4.55446 13.7261 4.6087C13.7261 4.68538 13.7613 4.75383 13.8165 4.79874C13.6857 4.80378 13.5812 4.91142 13.5812 5.04348C13.5812 5.06517 13.584 5.0862 13.5893 5.10623C13.4995 5.14257 13.4362 5.23056 13.4362 5.33333C13.4362 5.35502 13.4391 5.37605 13.4443 5.39608C13.3546 5.43243 13.2913 5.52041 13.2913 5.62319C13.2913 5.75846 13.401 5.86812 13.5362 5.86812C13.6715 5.86812 13.7812 5.75846 13.7812 5.62319C13.7812 5.6015 13.7783 5.58047 13.773 5.56044C13.8628 5.5241 13.9261 5.43611 13.9261 5.33333C13.9261 5.31164 13.9233 5.29061 13.918 5.27059C14.0077 5.23424 14.071 5.14625 14.071 5.04348C14.071 4.9668 14.0358 4.89835 13.9806 4.85344C14.1114 4.8484 14.2159 4.74075 14.2159 4.6087C14.2159 4.55446 14.1983 4.50435 14.1685 4.46377C14.1878 4.43752 14.202 4.40729 14.2096 4.37453C14.25 4.40387 14.2997 4.42118 14.3534 4.42118C14.3928 4.42118 14.43 4.41189 14.4629 4.39538C14.4951 4.49317 14.5871 4.56377 14.6957 4.56377C14.7123 4.56377 14.7285 4.56211 14.7442 4.55895C14.7642 4.67407 14.8647 4.7616 14.9855 4.7616C15.0009 4.7616 15.0159 4.76019 15.0305 4.75748C15.0325 4.89097 15.1414 4.99855 15.2754 4.99855C15.2925 4.99855 15.3093 4.99679 15.3254 4.99343C15.3221 5.00959 15.3203 5.02633 15.3203 5.04348C15.3203 5.06517 15.3231 5.0862 15.3284 5.10622C15.2387 5.14257 15.1754 5.23056 15.1754 5.33333C15.1754 5.35502 15.1782 5.37605 15.1835 5.39608C15.0937 5.43242 15.0304 5.52041 15.0304 5.62319C15.0304 5.69987 15.0657 5.76832 15.1208 5.81323C14.99 5.81827 14.8855 5.92591 14.8855 6.05797ZM14.1139 4.22792C14.1268 4.28788 14.1616 4.33969 14.2096 4.37453C14.2137 4.35664 14.2159 4.338 14.2159 4.31884C14.2159 4.26461 14.1983 4.2145 14.1685 4.17391C14.1983 4.13333 14.2159 4.08322 14.2159 4.02899C14.2159 4.01126 14.2141 3.99397 14.2105 3.97732C14.1631 4.01139 14.1285 4.06193 14.1148 4.12056C14.0744 4.09122 14.0248 4.07391 13.971 4.07391C13.9958 4.07391 14.0159 4.0538 14.0159 4.02899C14.0159 4.00417 13.9958 3.98406 13.971 3.98406C13.9462 3.98406 13.9261 4.00417 13.9261 4.02899C13.9261 4.0538 13.9462 4.07391 13.971 4.07391C13.89 4.07391 13.8181 4.11327 13.7735 4.17391C13.8181 4.23456 13.89 4.27391 13.971 4.27391C13.9462 4.27391 13.9261 4.29403 13.9261 4.31884C13.9261 4.34365 13.9462 4.36377 13.971 4.36377C13.89 4.36377 13.8181 4.40313 13.7735 4.46377C13.8181 4.52441 13.89 4.56377 13.971 4.56377C13.9462 4.56377 13.9261 4.58388 13.9261 4.6087C13.9261 4.63351 13.9462 4.65362 13.971 4.65362C13.9958 4.65362 14.0159 4.63351 14.0159 4.6087C14.0159 4.58388 13.9958 4.56377 13.971 4.56377C14.0521 4.56377 14.1239 4.52441 14.1685 4.46377C14.1239 4.40313 14.0521 4.36377 13.971 4.36377C13.9958 4.36377 14.0159 4.34365 14.0159 4.31884C14.0159 4.29403 13.9958 4.27391 13.971 4.27391C14.0244 4.27391 14.0737 4.25686 14.1139 4.22792ZM14.1139 4.22792C14.1348 4.21288 14.1532 4.19464 14.1685 4.17391C14.1535 4.15348 14.1353 4.13547 14.1148 4.12056C14.1107 4.13845 14.1085 4.15709 14.1085 4.17625C14.1085 4.19397 14.1104 4.21126 14.1139 4.22792ZM13.773 5.56044C13.7453 5.45557 13.6498 5.37826 13.5362 5.37826C13.5037 5.37826 13.4727 5.38459 13.4443 5.39608C13.4721 5.50095 13.5676 5.57826 13.6812 5.57826C13.7137 5.57826 13.7447 5.57193 13.773 5.56044ZM13.918 5.27059C13.8903 5.16572 13.7947 5.08841 13.6812 5.08841C13.6487 5.08841 13.6176 5.09473 13.5893 5.10623C13.617 5.21109 13.7125 5.28841 13.8261 5.28841C13.8586 5.28841 13.8896 5.28208 13.918 5.27059ZM13.9806 4.85344C13.9385 4.81912 13.8847 4.79855 13.8261 4.79855L13.8165 4.79874C13.8586 4.83305 13.9124 4.85362 13.971 4.85362L13.9806 4.85344ZM12.5208 3.79235C12.582 3.74782 12.6217 3.67565 12.6217 3.5942C12.6217 3.55486 12.6125 3.51769 12.596 3.48475C12.5348 3.52928 12.4951 3.60144 12.4951 3.68289C12.4951 3.72223 12.5043 3.75941 12.5208 3.79235ZM12.8957 3.87199C12.9502 3.82707 12.9849 3.75904 12.9849 3.68289C12.9849 3.63392 12.9705 3.5883 12.9458 3.55003C12.8913 3.59495 12.8565 3.66298 12.8565 3.73913C12.8565 3.78811 12.8709 3.83372 12.8957 3.87199ZM13.3454 3.7615C13.3409 3.81091 13.3217 3.85609 13.2923 3.89264C13.2968 3.84323 13.3159 3.79805 13.3454 3.7615ZM13.7289 4.06624C13.7616 4.0246 13.7812 3.97208 13.7812 3.91501C13.7812 3.90234 13.7802 3.8899 13.7783 3.87775C13.7456 3.91939 13.7261 3.97191 13.7261 4.02899C13.7261 4.04165 13.727 4.0541 13.7289 4.06624ZM14.4629 4.39538C14.5432 4.35518 14.5983 4.27215 14.5983 4.17625C14.5983 4.14952 14.594 4.12379 14.5861 4.09971C14.5058 4.13991 14.4507 4.22294 14.4507 4.31884C14.4507 4.34557 14.455 4.3713 14.4629 4.39538ZM14.7442 4.55895C14.8562 4.53642 14.9406 4.43748 14.9406 4.31884C14.9406 4.30442 14.9393 4.2903 14.9369 4.27656C14.8249 4.2991 14.7406 4.39804 14.7406 4.51668C14.7406 4.53109 14.7418 4.54522 14.7442 4.55895ZM15.3254 4.99343C15.4205 4.97368 15.4954 4.89878 15.5152 4.80367C15.4201 4.82342 15.3452 4.89832 15.3254 4.99343ZM15.2304 4.51281L15.2304 4.51668C15.2304 4.63659 15.1443 4.73637 15.0305 4.75748L15.0304 4.75362C15.0304 4.63371 15.1166 4.53393 15.2304 4.51281ZM15.3284 5.10622C15.3568 5.09473 15.3878 5.08841 15.4203 5.08841C15.5339 5.08841 15.6294 5.16572 15.6571 5.27058C15.6287 5.28207 15.5977 5.28841 15.5652 5.28841C15.4516 5.28841 15.3561 5.21109 15.3284 5.10622ZM15.1835 5.39608C15.2119 5.38459 15.2429 5.37826 15.2754 5.37826C15.3889 5.37826 15.4845 5.45557 15.5122 5.56044C15.4838 5.57193 15.4528 5.57826 15.4203 5.57826C15.3067 5.57826 15.2112 5.50095 15.1835 5.39608ZM15.2754 5.86812C15.2168 5.86812 15.163 5.84754 15.1208 5.81323L15.1304 5.81304C15.189 5.81304 15.2428 5.83362 15.285 5.86793L15.2754 5.86812ZM15.2754 5.66812C15.3002 5.66812 15.3203 5.648 15.3203 5.62319C15.3203 5.59838 15.3002 5.57826 15.2754 5.57826C15.2505 5.57826 15.2304 5.59838 15.2304 5.62319C15.2304 5.648 15.2505 5.66812 15.2754 5.66812ZM15.4203 5.37826C15.4451 5.37826 15.4652 5.35815 15.4652 5.33333C15.4652 5.30852 15.4451 5.28841 15.4203 5.28841C15.3955 5.28841 15.3754 5.30852 15.3754 5.33333C15.3754 5.35815 15.3955 5.37826 15.4203 5.37826ZM15.5652 5.08841C15.59 5.08841 15.6101 5.06829 15.6101 5.04348C15.6101 5.01867 15.59 4.99855 15.5652 4.99855C15.5404 4.99855 15.5203 5.01867 15.5203 5.04348C15.5203 5.06829 15.5404 5.08841 15.5652 5.08841ZM15.2754 4.79855C15.3002 4.79855 15.3203 4.77844 15.3203 4.75362C15.3203 4.72881 15.3002 4.7087 15.2754 4.7087C15.2505 4.7087 15.2304 4.72881 15.2304 4.75362C15.2304 4.77844 15.2505 4.79855 15.2754 4.79855ZM14.9855 4.5616C15.0103 4.5616 15.0304 4.54149 15.0304 4.51668C15.0304 4.49186 15.0103 4.47175 14.9855 4.47175C14.9607 4.47175 14.9406 4.49186 14.9406 4.51668C14.9406 4.54149 14.9607 4.5616 14.9855 4.5616ZM14.6957 4.36377C14.7205 4.36377 14.7406 4.34365 14.7406 4.31884C14.7406 4.29403 14.7205 4.27391 14.6957 4.27391C14.6708 4.27391 14.6507 4.29403 14.6507 4.31884C14.6507 4.34365 14.6708 4.36377 14.6957 4.36377ZM14.3534 4.22118C14.3782 4.22118 14.3983 4.20106 14.3983 4.17625C14.3983 4.15144 14.3782 4.13132 14.3534 4.13132C14.3286 4.13132 14.3085 4.15144 14.3085 4.17625C14.3085 4.20106 14.3286 4.22118 14.3534 4.22118ZM13.5362 3.95994C13.561 3.95994 13.5812 3.93982 13.5812 3.91501C13.5812 3.8902 13.561 3.87008 13.5362 3.87008C13.5114 3.87008 13.4913 3.8902 13.4913 3.91501C13.4913 3.93982 13.5114 3.95994 13.5362 3.95994ZM13.1014 3.78406C13.1263 3.78406 13.1464 3.76394 13.1464 3.73913C13.1464 3.71432 13.1263 3.6942 13.1014 3.6942C13.0766 3.6942 13.0565 3.71432 13.0565 3.73913C13.0565 3.76394 13.0766 3.78406 13.1014 3.78406ZM12.74 3.72782C12.7648 3.72782 12.7849 3.7077 12.7849 3.68289C12.7849 3.65808 12.7648 3.63796 12.74 3.63796C12.7152 3.63796 12.6951 3.65808 12.6951 3.68289C12.6951 3.7077 12.7152 3.72782 12.74 3.72782ZM12.3768 3.63913C12.4016 3.63913 12.4217 3.61902 12.4217 3.5942C12.4217 3.56939 12.4016 3.54928 12.3768 3.54928C12.352 3.54928 12.3319 3.56939 12.3319 3.5942C12.3319 3.61902 12.352 3.63913 12.3768 3.63913ZM13.8261 5.08841C13.8509 5.08841 13.871 5.06829 13.871 5.04348C13.871 5.01867 13.8509 4.99855 13.8261 4.99855C13.8013 4.99855 13.7812 5.01867 13.7812 5.04348C13.7812 5.06829 13.8013 5.08841 13.8261 5.08841ZM13.6812 5.37826C13.706 5.37826 13.7261 5.35815 13.7261 5.33333C13.7261 5.30852 13.706 5.28841 13.6812 5.28841C13.6563 5.28841 13.6362 5.30852 13.6362 5.33333C13.6362 5.35815 13.6563 5.37826 13.6812 5.37826ZM13.5362 5.66812C13.561 5.66812 13.5812 5.648 13.5812 5.62319C13.5812 5.59838 13.561 5.57826 13.5362 5.57826C13.5114 5.57826 13.4913 5.59838 13.4913 5.62319C13.4913 5.648 13.5114 5.66812 13.5362 5.66812Z" fill="white"/>
<path fill-rule="evenodd" clip-rule="evenodd" d="M11.1016 2.15411L10.8868 2.15762L10.8872 2.51075L10.4906 2.51052L10.4954 2.7249L10.8874 2.72512L10.8878 3.1276L11.1026 3.12408L11.1022 2.72524L11.4923 2.72546L11.4876 2.51108L11.102 2.51087L11.1016 2.15411Z" fill="#F6C540"/>
<path fill-rule="evenodd" clip-rule="evenodd" d="M5.78475 8.73414H16.1847V17.5676C16.1847 17.5676 15.8702 21.9677 10.9847 21.9677C6.09925 21.9677 5.78475 17.5676 5.78475 17.5676V8.73414Z" fill="#C51918"/>
<path fill-rule="evenodd" clip-rule="evenodd" d="M8.9236 9.03982C8.82823 9.03982 8.68143 9.10831 8.48684 9.18587C8.29225 9.26343 8.0879 9.43088 8.28737 9.5986C8.48684 9.76632 8.7724 10.1344 8.7724 9.99679C8.7724 9.85916 9.11352 9.72572 9.11352 9.79244C9.11352 9.85916 9.00791 9.99679 9.28494 9.99679C9.56197 9.99679 9.7047 10.0786 9.40911 10.0786C9.11352 10.0786 9.0814 10.2139 8.8893 10.2139C8.6972 10.2139 8.28737 10.0776 8.28737 9.99679C8.28737 9.91596 8.52471 10.3942 8.7724 10.3942C9.02009 10.3942 9.16078 10.6269 9.28494 10.5105C9.40911 10.3942 9.39441 10.3942 9.59501 10.3942C9.79561 10.3942 9.7224 9.92433 9.7224 9.92433C9.7224 9.92433 9.01896 9.03982 8.9236 9.03982Z" fill="#E8AA00"/>
<path fill-rule="evenodd" clip-rule="evenodd" d="M12.937 9.03982C13.0324 9.03982 13.1792 9.10831 13.3738 9.18587C13.5684 9.26343 13.7727 9.43088 13.5733 9.5986C13.3738 9.76632 13.0882 10.1344 13.0882 9.99679C13.0882 9.85916 12.7471 9.72572 12.7471 9.79244C12.7471 9.85916 12.8527 9.99679 12.5757 9.99679C12.2987 9.99679 12.1559 10.0786 12.4515 10.0786C12.7471 10.0786 12.7792 10.2139 12.9713 10.2139C13.1634 10.2139 13.5733 10.0776 13.5733 9.99679C13.5733 9.91596 13.3359 10.3942 13.0882 10.3942C12.8406 10.3942 12.6999 10.6269 12.5757 10.5105C12.4515 10.3942 12.4662 10.3942 12.2656 10.3942C12.065 10.3942 12.1382 9.92433 12.1382 9.92433C12.1382 9.92433 12.8417 9.03982 12.937 9.03982Z" fill="#E8AA00"/>
<path fill-rule="evenodd" clip-rule="evenodd" d="M14.2119 10.0002C14.4113 10.4651 12.8834 12.1922 12.8834 12.1922H12.7123C12.6404 12.1922 12.5067 12.0153 12.3452 11.8017C12.2346 11.6553 12.1109 11.4917 11.9851 11.3559C11.7486 11.1006 11.874 10.8861 11.9908 10.6861C12.0267 10.6247 12.0618 10.5647 12.0854 10.5052C12.1364 10.3764 12.1437 10.3251 12.152 10.2664C12.16 10.2098 12.1689 10.1464 12.219 10.0002C12.2927 9.78531 12.5494 9.5081 12.7274 9.31589C12.7962 9.24166 12.8532 9.18012 12.8834 9.13972C12.9787 9.01222 12.9064 9.01296 12.7074 9.01499C12.6801 9.01527 12.6504 9.01558 12.6185 9.01558C12.3536 9.01558 11.8476 9.13972 11.6963 9.28472C11.545 9.42972 11.3864 9.46065 11.1534 9.46065C10.9204 9.46065 11.0641 9.61759 11.2763 9.72357C11.0478 9.76726 10.9013 10.1482 10.8152 10.4864C10.7683 10.1482 10.6647 9.76726 10.4362 9.72357C10.6484 9.61759 10.7922 9.46065 10.5591 9.46065C10.3261 9.46065 10.1675 9.42972 10.0162 9.28472C9.86496 9.13972 9.35894 9.01558 9.09405 9.01558C9.06209 9.01558 9.03241 9.01527 9.00511 9.01499C8.80616 9.01296 8.73385 9.01222 8.82916 9.13972C8.85935 9.18012 8.91635 9.24166 8.98509 9.31589C9.16311 9.5081 9.41984 9.78531 9.49348 10.0002C9.54358 10.1464 9.55255 10.2098 9.56055 10.2664C9.56884 10.3251 9.5761 10.3764 9.62714 10.5052C9.6507 10.5647 9.68579 10.6247 9.7217 10.6861C9.83856 10.8861 9.96393 11.1006 9.72738 11.3559C9.60164 11.4917 9.47796 11.6553 9.3673 11.8017C9.20585 12.0153 9.07213 12.1922 9.00024 12.1922H8.82916C8.82916 12.1922 7.30123 10.4651 7.5006 10.0002C7.57765 9.82045 7.70194 9.65112 7.8048 9.51099C7.96805 9.28858 8.07731 9.13972 7.85803 9.13972C7.5006 9.13972 6.07573 10.0432 6.07573 12.0804C6.07573 14.1177 6.20735 15.2763 6.51287 16.088C6.72136 16.642 6.53039 17.1799 6.38806 17.5809C6.32183 17.7674 6.26613 17.9243 6.26613 18.0394C6.26613 18.4016 6.82713 18.0842 6.82713 17.8574C6.82713 17.7495 6.90395 17.9102 6.98452 18.0786C7.07335 18.2644 7.16674 18.4597 7.16674 18.3151C7.16674 18.1608 7.25618 17.9979 7.33497 17.8543C7.39701 17.7413 7.45244 17.6403 7.45244 17.565C7.45244 17.4898 7.53114 17.4926 7.61921 17.4957C7.73106 17.4996 7.85803 17.5041 7.85803 17.3499C7.85803 17.2458 7.89843 17.225 7.94872 17.1991C8.03166 17.1564 8.14152 17.0999 8.14152 16.6331C8.14152 16.2871 8.21078 16.4097 8.29024 16.5503C8.36336 16.6797 8.44511 16.8244 8.48943 16.6331C8.49375 16.6145 8.53965 16.5343 8.59639 16.4351C8.67897 16.2908 8.78451 16.1063 8.81826 16.0132C8.71419 16.4206 8.46449 16.8452 8.30592 17.0475C8.14152 17.2572 7.85803 17.7125 7.85803 17.7125C7.85803 17.7125 8.12241 17.8599 8.30592 17.7125C8.40842 17.6301 8.41534 17.7076 8.42289 17.7921C8.42885 17.8588 8.4352 17.9299 8.48943 17.9299C8.52349 17.9299 8.55555 17.9355 8.58411 17.9404C8.60524 17.9441 8.62444 17.9474 8.64112 17.9479C8.57986 18.104 8.52491 18.3535 8.70921 18.1868C8.84083 18.0677 8.93312 18.0194 8.99426 17.9874C9.06501 17.9503 9.09405 17.9351 9.09405 17.8574C9.09405 17.7798 9.1228 17.8061 9.16784 17.8473C9.20692 17.883 9.25827 17.9299 9.31374 17.9299C9.38522 17.9299 9.4001 17.8304 9.42175 17.6856C9.43626 17.5886 9.45381 17.4712 9.49348 17.3499C9.50272 17.3216 9.5114 17.2944 9.51963 17.2687C9.59944 17.0189 9.63665 16.9024 9.72738 17.2175C9.76978 17.3647 9.84467 17.469 9.90989 17.5598C9.99862 17.6833 10.0694 17.7819 10.0162 17.9299C9.99537 17.9879 9.96923 18.0534 9.94124 18.1235C9.84519 18.3641 9.72738 18.6592 9.72738 18.8916C9.72738 19.0298 9.60162 19.2181 9.48343 19.395C9.34489 19.6025 9.21675 19.7943 9.31374 19.8716C9.49348 20.0148 9.27598 20.4971 9.09405 20.7445C8.91212 20.9919 8.94221 21.294 9.21784 21.294C9.36869 21.294 9.45054 21.3487 9.52465 21.3983C9.58596 21.4393 9.64198 21.4768 9.72738 21.4768C9.91602 21.4768 10.0162 21.3837 10.0162 21.3837C10.0162 21.3837 10.1327 21.5598 10.3261 21.5598C10.5195 21.5598 10.5591 21.3837 10.5591 21.3837L10.7023 21.5598L10.7134 20.789V21.5598L11.1534 21.3837C11.1534 21.3837 11.193 21.5598 11.3864 21.5598C11.5799 21.5598 11.6963 21.3837 11.6963 21.3837C11.6963 21.3837 11.7965 21.4768 11.9851 21.4768C12.0705 21.4768 12.1266 21.4393 12.1879 21.3983C12.262 21.3487 12.3438 21.294 12.4947 21.294C12.7703 21.294 12.8004 20.9919 12.6185 20.7445C12.4365 20.4971 12.219 20.0148 12.3988 19.8716C12.4958 19.7943 12.3676 19.6025 12.2291 19.395C12.1109 19.2181 11.9851 19.0298 11.9851 18.8916C11.9851 18.6592 11.8673 18.3641 11.7713 18.1235C11.7433 18.0534 11.7171 17.9879 11.6963 17.9299C11.6431 17.7819 11.7139 17.6833 11.8026 17.5598C11.8678 17.469 11.9427 17.3647 11.9851 17.2175C12.0759 16.9024 12.1131 17.0189 12.1929 17.2687C12.2011 17.2944 12.2098 17.3216 12.219 17.3499C12.2587 17.4712 12.2763 17.5886 12.2908 17.6856C12.3124 17.8304 12.3273 17.9299 12.3988 17.9299C12.4542 17.9299 12.5056 17.883 12.5447 17.8473C12.5897 17.8061 12.6185 17.7798 12.6185 17.8574C12.6185 17.9351 12.6475 17.9503 12.7183 17.9874C12.7794 18.0194 12.8717 18.0677 13.0033 18.1868C13.1876 18.3535 13.1327 18.104 13.0714 17.9479C13.0881 17.9474 13.1073 17.9441 13.1284 17.9404C13.157 17.9355 13.189 17.9299 13.2231 17.9299C13.2773 17.9299 13.2837 17.8588 13.2896 17.7921C13.2972 17.7076 13.3041 17.6301 13.4066 17.7125C13.5901 17.8599 13.8545 17.7125 13.8545 17.7125C13.8545 17.7125 13.571 17.2572 13.4066 17.0475C13.248 16.8452 12.9983 16.4206 12.8943 16.0132C12.928 16.1063 13.0335 16.2908 13.1161 16.4351C13.1729 16.5343 13.2188 16.6145 13.2231 16.6331C13.2674 16.8244 13.3492 16.6797 13.4223 16.5503C13.5017 16.4097 13.571 16.2871 13.571 16.6331C13.571 17.0999 13.6809 17.1564 13.7638 17.1991C13.8141 17.225 13.8545 17.2458 13.8545 17.3499C13.8545 17.5041 13.9815 17.4996 14.0933 17.4957C14.1814 17.4926 14.2601 17.4898 14.2601 17.565C14.2601 17.6403 14.3155 17.7413 14.3775 17.8543C14.4563 17.9979 14.5458 18.1608 14.5458 18.3151C14.5458 18.4597 14.6392 18.2644 14.728 18.0786C14.8086 17.9102 14.8854 17.7495 14.8854 17.8574C14.8854 18.0842 15.4464 18.4016 15.4464 18.0394C15.4464 17.9243 15.3907 17.7674 15.3245 17.5809C15.1821 17.1799 14.9912 16.642 15.1996 16.088C15.5052 15.2763 15.6368 14.1177 15.6368 12.0804C15.6368 10.0432 14.2119 9.13972 13.8545 9.13972C13.6352 9.13972 13.7445 9.28858 13.9077 9.51099C14.0106 9.65112 14.1349 9.82045 14.2119 10.0002ZM12.8834 15.9682C12.8868 15.9832 12.8904 15.9982 12.8943 16.0132C12.8873 15.9939 12.8834 15.9785 12.8834 15.9682ZM13.0033 17.8574C13.0033 17.8065 13.0383 17.8636 13.0714 17.9479C13.0293 17.9492 13.0033 17.9324 13.0033 17.8574ZM8.64112 17.9479C8.68323 17.9492 8.70921 17.9324 8.70921 17.8574C8.70921 17.8065 8.67424 17.8636 8.64112 17.9479ZM8.81826 16.0132C8.82525 15.9939 8.82916 15.9785 8.82916 15.9682C8.82573 15.9832 8.8221 15.9982 8.81826 16.0132Z" fill="#F7FCFF"/>
<path fill-rule="evenodd" clip-rule="evenodd" d="M8.18872 19.2019C8.18872 19.0614 8.54825 18.7354 8.54825 18.7354V18.7631C8.59869 18.8039 8.92001 19.0688 8.92001 19.1983C8.92001 19.2787 8.8784 19.3952 8.84279 19.4949C8.81614 19.5696 8.79284 19.6348 8.79284 19.6685C8.79284 19.6911 8.80225 19.6749 8.82016 19.6439C8.86454 19.5674 8.96108 19.4007 9.09594 19.5121C9.27457 19.6597 9.27349 19.8773 9.2728 20.0152C9.27276 20.0234 9.27272 20.0314 9.27272 20.039C9.27272 20.082 9.27264 20.0817 9.26691 20.0612C9.25458 20.0171 9.21609 19.8795 9.09594 19.8795C8.92001 19.8795 8.79284 20.039 8.79284 20.039V20.311C8.79284 20.311 8.81515 20.5357 8.92001 20.4233C9.02487 20.311 9.04718 20.5619 8.92001 20.5619C8.85509 20.5619 8.78832 20.6308 8.72294 20.6983C8.66026 20.763 8.59886 20.8263 8.54163 20.8263V20.8037C8.48741 20.7995 8.44273 20.7437 8.39716 20.6868C8.34771 20.625 8.29721 20.5619 8.23228 20.5619C8.10511 20.5619 8.12743 20.311 8.23228 20.4233C8.33714 20.5357 8.35946 20.311 8.35946 20.311V20.039C8.35946 20.039 8.23228 19.8795 8.05636 19.8795C7.93621 19.8795 7.89772 20.0171 7.88538 20.0612C7.87966 20.0817 7.87958 20.082 7.87958 20.039C7.87958 20.0314 7.87954 20.0234 7.87949 20.0152C7.87881 19.8773 7.87772 19.6597 8.05636 19.5121C8.19121 19.4007 8.28776 19.5674 8.33213 19.6439C8.35004 19.6749 8.35946 19.6911 8.35946 19.6685C8.35946 19.6348 8.32818 19.5702 8.2924 19.4963C8.24458 19.3976 8.18872 19.2823 8.18872 19.2019Z" fill="#E8AA00"/>
<path fill-rule="evenodd" clip-rule="evenodd" d="M12.9713 19.2019C12.9713 19.0614 13.3309 18.7354 13.3309 18.7354V18.7631C13.3813 18.8039 13.7026 19.0688 13.7026 19.1983C13.7026 19.2787 13.661 19.3952 13.6254 19.4949C13.5987 19.5696 13.5755 19.6348 13.5755 19.6685C13.5755 19.6911 13.5849 19.6749 13.6028 19.6439C13.6471 19.5674 13.7437 19.4007 13.8785 19.5121C14.0572 19.6597 14.0561 19.8773 14.0554 20.0152C14.0554 20.0234 14.0553 20.0314 14.0553 20.039C14.0553 20.082 14.0552 20.0817 14.0495 20.0612C14.0372 20.0171 13.9987 19.8795 13.8785 19.8795C13.7026 19.8795 13.5755 20.039 13.5755 20.039V20.311C13.5755 20.311 13.5978 20.5357 13.7026 20.4233C13.8075 20.311 13.8298 20.5619 13.7026 20.5619C13.6377 20.5619 13.5709 20.6308 13.5056 20.6983C13.4429 20.763 13.3815 20.8263 13.3242 20.8263V20.8037C13.27 20.7995 13.2253 20.7437 13.1798 20.6868C13.1303 20.625 13.0798 20.5619 13.0149 20.5619C12.8877 20.5619 12.91 20.311 13.0149 20.4233C13.1198 20.5357 13.1421 20.311 13.1421 20.311V20.039C13.1421 20.039 13.0149 19.8795 12.839 19.8795C12.7188 19.8795 12.6803 20.0171 12.668 20.0612C12.6623 20.0817 12.6622 20.082 12.6622 20.039C12.6622 20.0314 12.6621 20.0234 12.6621 20.0152C12.6614 19.8773 12.6603 19.6597 12.839 19.5121C12.9738 19.4007 13.0704 19.5674 13.1147 19.6439C13.1327 19.6749 13.1421 19.6911 13.1421 19.6685C13.1421 19.6348 13.1108 19.5702 13.075 19.4963C13.0272 19.3976 12.9713 19.2823 12.9713 19.2019Z" fill="#E8AA00"/>
<path fill-rule="evenodd" clip-rule="evenodd" d="M7.83066 18.3593C8.15113 18.3593 8.21593 17.7498 8.21593 17.7498C8.21593 17.7498 8.4848 17.4711 8.4848 17.6766C8.4848 17.7862 8.40836 17.9243 8.35021 18.0293C8.29931 18.1212 8.26243 18.1878 8.30314 18.1878H8.74692C9.11283 18.1878 8.68267 18.3593 8.4848 18.4357C8.39504 18.4704 8.33139 18.4885 8.27032 18.5059C8.19678 18.5268 8.12699 18.5467 8.01989 18.5931C7.82385 18.6781 7.73975 19.2373 7.83066 19.4169C7.92157 19.5965 7.73975 19.5207 7.6646 19.4169C7.62285 19.3593 7.59238 19.4386 7.54988 19.5494C7.51588 19.6379 7.47418 19.7466 7.41285 19.8211C7.2944 19.9651 7.29567 19.8379 7.2984 19.5639C7.29885 19.5187 7.29934 19.4695 7.29934 19.4169C7.29934 19.1741 7.3478 19.1719 7.41989 19.1687C7.45813 19.167 7.50301 19.165 7.55084 19.1266C7.65413 19.0437 7.66653 19.001 7.69775 18.8936C7.70824 18.8575 7.72085 18.8141 7.73975 18.7594C7.81489 18.5419 7.41285 18.8857 7.29934 19.0485C7.23022 19.1477 7.18208 19.1585 7.11007 19.1747C7.06382 19.1851 7.00772 19.1977 6.9299 19.2373C6.8034 19.3018 6.83773 19.1752 6.87953 19.0209C6.90349 18.9326 6.9299 18.8351 6.9299 18.7594C6.9299 18.6288 7.00846 18.6623 7.10914 18.7053C7.16869 18.7307 7.23599 18.7594 7.29934 18.7594C7.46124 18.7594 7.54485 18.691 7.64805 18.6066C7.65351 18.6022 7.65902 18.5977 7.6646 18.5931C7.74741 18.5257 7.56703 18.546 7.35222 18.5703C7.27875 18.5785 7.20126 18.5873 7.12889 18.5931C6.9637 18.6064 6.95267 18.5965 6.91143 18.5594C6.88177 18.5327 6.8365 18.492 6.70704 18.4357C6.39756 18.3012 6.90598 18.3593 7.12889 18.4357C7.25284 18.4782 7.35684 18.4498 7.47986 18.4162C7.57806 18.3894 7.68839 18.3593 7.83066 18.3593ZM14.0456 18.3593C13.7251 18.3593 13.6603 17.7498 13.6603 17.7498C13.6603 17.7498 13.3914 17.4711 13.3914 17.6766C13.3914 17.7862 13.4679 17.9243 13.526 18.0293C13.5769 18.1212 13.6138 18.1878 13.5731 18.1878H13.1293C12.7634 18.1878 13.1935 18.3593 13.3914 18.4357C13.4812 18.4704 13.5448 18.4885 13.6059 18.5059C13.6794 18.5268 13.7492 18.5467 13.8563 18.5931C14.0524 18.6781 14.1365 19.2373 14.0456 19.4169C13.9546 19.5965 14.1365 19.5207 14.2116 19.4169C14.2534 19.3593 14.2838 19.4386 14.3263 19.5494C14.3603 19.6379 14.402 19.7466 14.4634 19.8211C14.5818 19.9651 14.5805 19.8379 14.5778 19.5639C14.5774 19.5187 14.5769 19.4695 14.5769 19.4169C14.5769 19.1741 14.5284 19.1719 14.4563 19.1687C14.4181 19.167 14.3732 19.165 14.3254 19.1266C14.2221 19.0437 14.2097 19.001 14.1785 18.8936C14.168 18.8575 14.1554 18.8141 14.1365 18.7594C14.0613 18.5419 14.4634 18.8857 14.5769 19.0485C14.646 19.1477 14.6941 19.1585 14.7661 19.1747C14.8124 19.1851 14.8685 19.1977 14.9463 19.2373C15.0728 19.3018 15.0385 19.1752 14.9967 19.0209C14.9727 18.9326 14.9463 18.8351 14.9463 18.7594C14.9463 18.6288 14.8678 18.6623 14.7671 18.7053C14.7075 18.7307 14.6402 18.7594 14.5769 18.7594C14.415 18.7594 14.3314 18.691 14.2282 18.6066C14.2227 18.6022 14.2172 18.5977 14.2116 18.5931C14.1288 18.5257 14.3092 18.546 14.524 18.5703C14.5975 18.5785 14.675 18.5873 14.7473 18.5931C14.9125 18.6064 14.9235 18.5965 14.9648 18.5594C14.9944 18.5327 15.0397 18.492 15.1692 18.4357C15.4787 18.3012 14.9702 18.3593 14.7473 18.4357C14.6234 18.4782 14.5194 18.4498 14.3964 18.4162C14.2982 18.3894 14.1878 18.3593 14.0456 18.3593Z" fill="#E8AA00"/>
<path fill-rule="evenodd" clip-rule="evenodd" d="M9.04699 12.3412H12.9225V15.8755C12.9225 15.8755 12.5065 17.636 10.9847 17.636C9.46303 17.636 9.04699 15.8755 9.04699 15.8755V12.3412Z" fill="#C51918"/>
<path fill-rule="evenodd" clip-rule="evenodd" d="M11.5072 12.2899H10.4928V14.3188H9.04348V15.0435H10.4928V17.6522H11.5072V15.0435H12.9565V14.3188H11.5072V12.2899Z" fill="#F7FCFF"/>
<path fill-rule="evenodd" clip-rule="evenodd" d="M9.70083 13.3088C9.79811 13.3088 9.84452 13.2268 9.79307 13.1545C9.76602 13.1166 9.70998 13.1056 9.66789 13.13C9.66412 13.1322 9.66058 13.1346 9.65729 13.1372C9.6418 13.1333 9.62286 13.128 9.60103 13.1213C9.58144 13.1153 9.56017 13.1156 9.54075 13.122C9.51722 13.1298 9.50387 13.1057 9.51521 12.9558C9.52604 12.914 9.58335 12.8881 9.71687 12.8881C9.96084 12.8881 10.0611 12.9142 10.0611 12.9372V13.2957L9.94267 13.4025C9.88561 13.454 9.92603 13.5421 10.0067 13.5421H10.0611V13.8166C9.98663 13.8746 9.92009 13.9017 9.8618 13.9017C9.64355 13.9017 9.52093 13.8204 9.51755 13.7243C9.51848 13.6962 9.51975 13.6754 9.52068 13.6613C9.5263 13.663 9.53257 13.665 9.53948 13.6674C9.55945 13.6743 9.58149 13.6747 9.6017 13.6683L9.61 13.6656C9.61781 13.6629 9.62234 13.6614 9.62488 13.663C9.62838 13.6653 9.62804 13.6735 9.62723 13.6933L9.62723 13.6933L9.62723 13.6933C9.62693 13.7006 9.62657 13.7094 9.62631 13.7201C9.62522 13.7653 9.66488 13.8026 9.71489 13.8036C9.76491 13.8046 9.80634 13.7688 9.80743 13.7237C9.81125 13.5653 9.72244 13.4743 9.57502 13.5053C9.48803 13.4792 9.42718 13.4822 9.37971 13.5359C9.34484 13.5753 9.34017 13.6076 9.33648 13.7244C9.34319 13.925 9.55468 14.0652 9.8618 14.0652C9.98019 14.0652 10.0975 14.0123 10.2142 13.9118C10.2321 13.8964 10.2422 13.875 10.2422 13.8527V13.4603C10.2422 13.4339 10.2283 13.4104 10.2067 13.3954L10.2157 13.3873C10.2327 13.372 10.2422 13.3512 10.2422 13.3295V12.9372C10.2422 12.7696 10.0694 12.7246 9.71687 12.7246C9.50909 12.7246 9.37316 12.786 9.33669 12.9311C9.31613 13.1789 9.38958 13.3268 9.57113 13.2846C9.6273 13.3007 9.66888 13.3088 9.70083 13.3088ZM12.2463 13.1545C12.1948 13.2268 12.2412 13.3088 12.3385 13.3088C12.3705 13.3088 12.412 13.3007 12.4682 13.2846C12.6498 13.3268 12.7232 13.1789 12.7026 12.9311C12.6662 12.786 12.5302 12.7246 12.3225 12.7246C11.9699 12.7246 11.7971 12.7696 11.7971 12.9372V13.3295C11.7971 13.3512 11.8066 13.372 11.8236 13.3873L11.8326 13.3954C11.811 13.4104 11.7971 13.4339 11.7971 13.4603V13.8527C11.7971 13.875 11.8072 13.8964 11.8252 13.9118C11.9419 14.0123 12.0591 14.0652 12.1775 14.0652C12.4847 14.0652 12.6961 13.925 12.7029 13.7244C12.6992 13.6076 12.6945 13.5753 12.6596 13.5359C12.6122 13.4822 12.5513 13.4792 12.4643 13.5053C12.3169 13.4743 12.2281 13.5653 12.2319 13.7237C12.233 13.7688 12.2744 13.8046 12.3244 13.8036C12.3745 13.8026 12.4141 13.7653 12.413 13.7201C12.4128 13.7094 12.4124 13.7006 12.4121 13.6933C12.4113 13.6735 12.4109 13.6653 12.4145 13.663C12.417 13.6614 12.4215 13.6629 12.4293 13.6656L12.4376 13.6683C12.4578 13.6747 12.4799 13.6743 12.4998 13.6674C12.5068 13.665 12.513 13.663 12.5187 13.6613C12.5196 13.6754 12.5208 13.6962 12.5218 13.7243C12.5184 13.8204 12.3958 13.9017 12.1775 13.9017C12.1192 13.9017 12.0527 13.8746 11.9783 13.8166V13.5421H12.0326C12.1133 13.5421 12.1537 13.454 12.0967 13.4025L11.9783 13.2957V12.9372C11.9783 12.9142 12.0785 12.8881 12.3225 12.8881C12.456 12.8881 12.5133 12.914 12.5241 12.9558C12.5355 13.1057 12.5221 13.1298 12.4986 13.122C12.4792 13.1156 12.4579 13.1153 12.4383 13.1213C12.4165 13.128 12.3975 13.1333 12.382 13.1372C12.3788 13.1346 12.3752 13.1322 12.3714 13.13C12.3294 13.1056 12.2733 13.1166 12.2463 13.1545ZM12.5515 13.654L12.5476 13.6538L12.5502 13.6541L12.5515 13.654ZM12.3385 15.9175C12.2412 15.9175 12.1948 15.8355 12.2463 15.7632C12.2733 15.7253 12.3294 15.7143 12.3714 15.7387C12.3752 15.7409 12.3788 15.7433 12.382 15.7459C12.3975 15.742 12.4165 15.7367 12.4383 15.73C12.4579 15.724 12.4792 15.7243 12.4986 15.7307C12.5221 15.7385 12.5355 15.7144 12.5241 15.5645C12.5133 15.5227 12.456 15.4968 12.3225 15.4968C12.0785 15.4968 11.9783 15.5229 11.9783 15.5459V15.9044L12.0967 16.0112C12.1537 16.0627 12.1133 16.1508 12.0326 16.1508H11.9783V16.4253C12.0527 16.4833 12.1192 16.5104 12.1775 16.5104C12.3958 16.5104 12.5184 16.4291 12.5218 16.333C12.5208 16.3049 12.5196 16.2841 12.5187 16.27C12.513 16.2717 12.5068 16.2737 12.4998 16.2761C12.4799 16.283 12.4578 16.2834 12.4376 16.277L12.4293 16.2743C12.4215 16.2716 12.417 16.2701 12.4145 16.2717C12.4109 16.274 12.4113 16.2822 12.4121 16.302C12.4124 16.3093 12.4128 16.3181 12.413 16.3288C12.4141 16.3739 12.3745 16.4113 12.3244 16.4123C12.2744 16.4133 12.233 16.3775 12.2319 16.3324C12.2281 16.174 12.3169 16.083 12.4643 16.114C12.5513 16.0879 12.6122 16.0909 12.6596 16.1446C12.6945 16.184 12.6992 16.2163 12.7029 16.3331C12.6961 16.5337 12.4847 16.6739 12.1775 16.6739C12.0591 16.6739 11.9419 16.621 11.8252 16.5205C11.8072 16.5051 11.7971 16.4837 11.7971 16.4614V16.069C11.7971 16.0426 11.811 16.0191 11.8326 16.0041L11.8236 15.996C11.8066 15.9807 11.7971 15.9599 11.7971 15.9382V15.5459C11.7971 15.3783 11.9699 15.3333 12.3225 15.3333C12.5302 15.3333 12.6662 15.3947 12.7026 15.5398C12.7232 15.7876 12.6498 15.9355 12.4682 15.8933C12.412 15.9094 12.3705 15.9175 12.3385 15.9175ZM9.70083 15.9175C9.79811 15.9175 9.84452 15.8355 9.79307 15.7632C9.76602 15.7253 9.70998 15.7143 9.66789 15.7387C9.66412 15.7409 9.66058 15.7433 9.65729 15.7459C9.6418 15.742 9.62286 15.7367 9.60103 15.73C9.58144 15.724 9.56017 15.7243 9.54075 15.7307C9.51722 15.7385 9.50387 15.7144 9.51521 15.5645C9.52604 15.5227 9.58335 15.4968 9.71687 15.4968C9.96084 15.4968 10.0611 15.5229 10.0611 15.5459V15.9044L9.94267 16.0112C9.88561 16.0627 9.92603 16.1508 10.0067 16.1508H10.0611V16.4253C9.98663 16.4833 9.92009 16.5104 9.8618 16.5104C9.64355 16.5104 9.52093 16.4291 9.51755 16.333C9.51848 16.3049 9.51975 16.2841 9.52068 16.27C9.5263 16.2717 9.53257 16.2737 9.53948 16.2761C9.55945 16.283 9.58149 16.2834 9.6017 16.277C9.60481 16.276 9.60757 16.2751 9.61 16.2743C9.61781 16.2716 9.62234 16.2701 9.62488 16.2717C9.62838 16.274 9.62804 16.2822 9.62723 16.302C9.62693 16.3093 9.62657 16.3181 9.62631 16.3288C9.62522 16.3739 9.66488 16.4113 9.71489 16.4123C9.76491 16.4133 9.80634 16.3775 9.80743 16.3324C9.81125 16.174 9.72244 16.083 9.57502 16.114C9.48803 16.0879 9.42718 16.0909 9.37971 16.1446C9.34484 16.184 9.34017 16.2163 9.33648 16.3331C9.34319 16.5337 9.55468 16.6739 9.8618 16.6739C9.98019 16.6739 10.0975 16.621 10.2142 16.5205C10.2321 16.5051 10.2422 16.4837 10.2422 16.4614V16.069C10.2422 16.0426 10.2283 16.0191 10.2067 16.0041L10.2157 15.996C10.2327 15.9807 10.2422 15.9599 10.2422 15.9382V15.5459C10.2422 15.3783 10.0694 15.3333 9.71687 15.3333C9.50909 15.3333 9.37316 15.3947 9.33669 15.5398C9.31613 15.7876 9.38958 15.9355 9.57113 15.8933C9.6273 15.9094 9.66888 15.9175 9.70083 15.9175Z" fill="#F7FCFF"/>
</g>
</g>
<defs>
<clipPath id="clip0_1661_923">
<rect width="32" height="24" fill="white"/>
</clipPath>
</defs>
</svg>
