<svg id="f982d5ec-7b67-40a2-bb0d-fe83f17ffa87" data-name="b3169022-7613-46d6-9035-6cef7e7f303f" xmlns="http://www.w3.org/2000/svg" viewBox="0 0 431.21 500.08"><path d="M371.06,397.27l-74-44.56c-23.34-18.6-21.29-74.24-21.29-74.24L212.09,302,152.8,278.47s2,55.64-21.28,74.24l-76.2,44.56S11.24,423.46,3.5,498H422.92C415.14,423.46,371.06,397.27,371.06,397.27Z" transform="translate(0 0)" fill="#c78d61"/><path d="M152.8,278.47c-.77,32.78-7.07,52-7.07,52l132.19-18.13s-2.45-21-2.15-33.86h-123Z" transform="translate(0 0)" fill="#b27e5b"/><path d="M214.21,26.28h-1.48c-14.51.58-106.89,8-99.81,102.46C120.59,231.26,139,265.22,139,265.22s9.87,35.21,74.2,32.95h.6c65.49.06,74.2-32.95,74.2-32.95s18.38-34,26-136.48C321.1,34.25,228.72,26.86,214.21,26.28Z" transform="translate(0 0)" fill="#c78d61"/><path d="M118.94,162.1s-2.45-17.86-17.58-5.65-1,51.26,8.3,61.51,20,4.88,20,4.88Z" transform="translate(0 0)" fill="#c78d61"/><path d="M102.76,181c0-1,.11-2,.2-3a13.09,13.09,0,0,1,.14-1.39l.09-.76v-.6c.17-1.18.38-2.37.64-3.54a32.85,32.85,0,0,1,1-3.52c.09-.27.19-.55.29-.82l.15-.37a1.8,1.8,0,0,1,.08-.21c-.07.17,0,.08,0,0a15,15,0,0,1,.75-1.5c.12-.21.25-.42.38-.62l.23-.33c.2-.29-.07.07.11-.15a7.87,7.87,0,0,1,1-1c-.31.25.18-.12.3-.19l.3-.16c.29-.17-.12,0,.06,0l.62-.18c.19-.06.28,0,0,0h.81c.14,0,.42.06.12,0,.3.06.6.13.9.22l.42.15h0l.28.13c.33.17.65.34,1,.54a21.41,21.41,0,0,1,4.43,4.07c1.16,1.34,3.09-.61,1.94-1.94-2.11-2.42-4.86-5.25-8.19-5.81a6.37,6.37,0,0,0-6.19,2.65,19.16,19.16,0,0,0-3,6.92,52.85,52.85,0,0,0-1.3,7.49c-.14,1.33-.26,2.68-.3,4-.06,1.77,2.69,1.76,2.74,0Z" transform="translate(0 0)" fill="#b27e5b"/><path d="M121.79,174.64c-3.1-.35-6.94.75-8.05,4s.54,7.4,2.31,10a65.94,65.94,0,0,0,4.71,5.45,18.1,18.1,0,0,0,2.08,2.38c.37.3-.19-.72-.23-.42a2,2,0,0,0,.12.4c.3,1.27.7,2.52,1,3.79a44.67,44.67,0,0,1,1,5.5,12,12,0,0,1-.19,4.73c-.11.36,0,0-.11.28,0,.1-.32.5-.11.22-.08.1-.44.38-.14.16-.26.19-.11.09-.17.11-.35.07-.13,0-.23,0s-.37,0-.28,0a4.3,4.3,0,0,1-1.21-.4c-3.58-1.67-6.49-5.08-9.11-7.92-1.2-1.3-3.13.65-1.94,1.94,2.6,2.82,5.36,5.77,8.66,7.79,1.55,1,3.66,1.88,5.43.94,3.19-1.7,2.32-7,1.89-9.85a39.11,39.11,0,0,0-2-8.47,4.7,4.7,0,0,0-1-1.34l-2.72-3.32-2.72-3.12a11.43,11.43,0,0,1-1.91-3.66c-.49-1.37-1-3.12-.44-4.55a3,3,0,0,1,1.7-1.53,7.34,7.34,0,0,1,3.71-.42c1.75.2,1.73-2.54,0-2.74Z" transform="translate(0 0)" fill="#b27e5b"/><path d="M309.08,162.1s2.45-17.86,17.59-5.65,1,51.26-8.3,61.51-20,4.88-20,4.88Z" transform="translate(0 0)" fill="#c78d61"/><path d="M326.55,181c0-1-.1-2-.19-3l-.15-1.39-.09-.76a.92.92,0,0,0-.05-.37c.05.37,0-.15,0-.23-.17-1.18-.38-2.37-.63-3.54a32.85,32.85,0,0,0-1-3.52c-.09-.27-.19-.55-.29-.82s-.1-.25-.14-.37l-.09-.21c.07.17,0,.08,0,0-.23-.51-.48-1-.76-1.5-.12-.21-.24-.42-.38-.62l-.23-.33c-.2-.29.07.07-.11-.15a7.87,7.87,0,0,0-1-1c.3.25-.19-.12-.3-.19l-.31-.16c-.29-.17.13,0-.06,0l-.62-.18c-.18-.06-.28,0,0,0h-.82c-.14,0-.42.06-.11,0a9.28,9.28,0,0,0-.91.22l-.41.15h0l-.27.13c-.33.17-.65.34-1,.54a21.41,21.41,0,0,0-4.43,4.07c-1.16,1.34-3.09-.61-1.94-1.94,2.12-2.42,4.87-5.25,8.2-5.81a6.34,6.34,0,0,1,6.18,2.65,19.12,19.12,0,0,1,3.05,6.92,51.23,51.23,0,0,1,1.3,7.49c.15,1.33.27,2.68.31,4,.05,1.77-2.69,1.76-2.75,0Z" transform="translate(0 0)" fill="#b27e5b"/><path d="M307.5,174.64c3.09-.35,6.93.75,8.05,4s-.55,7.4-2.32,10a61.14,61.14,0,0,1-4.71,5.45,18.1,18.1,0,0,1-2.08,2.38c-.37.3.19-.72.23-.42a2,2,0,0,1-.12.4c-.3,1.27-.69,2.52-1,3.79a44.67,44.67,0,0,0-1,5.5,11.78,11.78,0,0,0,.18,4.73c.11.36,0,0,.11.28.05.1.32.5.12.22.07.1.44.38.13.16.27.19.11.09.18.11.35.07.12,0,.23,0s.36,0,.27,0a4.85,4.85,0,0,0,1.22-.4c3.57-1.67,6.49-5.08,9.1-7.92,1.2-1.3,3.14.65,1.94,1.94-2.6,2.82-5.36,5.77-8.65,7.79-1.55,1-3.66,1.88-5.43.94-3.19-1.7-2.32-7-1.9-9.85a40.21,40.21,0,0,1,1.95-8.47A4.87,4.87,0,0,1,305,194l2.85-3.27,2.72-3.12a11.43,11.43,0,0,0,1.91-3.66c.5-1.37,1-3.12.44-4.55a3,3,0,0,0-1.69-1.53,7.34,7.34,0,0,0-3.71-.42c-1.76.2-1.74-2.54,0-2.74Z" transform="translate(0 0)" fill="#b27e5b"/><path d="M387.21,403.16C348.86,380.53,307,351.83,307,351.83L303.36,312s-1.92-3.1-7.17,0l-69.14,40.75-12.3,35.43-12.31-35.43L133.31,312c-5.26-3.1-7.18,0-7.18,0l-3.63,39.83s-41.88,28.7-80.22,51.33S2,497,2,497H427.5S425.55,425.8,387.21,403.16Z" transform="translate(0 0)" fill="#ffeddc"/><path d="M377.31,396.83l-70-46L238,387.42s-5.79,9.23-23.85,9.6c-18.06-.37-22.08-9.6-22.08-9.6L121,350.83l-70,46C.06,415.18,0,500,0,500H431.21S428.15,415.18,377.31,396.83Z" transform="translate(0 0)" fill="#f48462"/><path d="M232,371.94l4.25-11.43h-3.69l4.49,29.11a1.94,1.94,0,0,0,2.39,1.32,1.57,1.57,0,0,0,.42-.18l59.91-32.57,8.65-4.71c2.17-1.17.24-4.48-1.93-3.3l-59.91,32.57L238,387.46l2.81,1.14-4.49-29.11c-.32-2.05-3.11-1.55-3.69,0l-4.25,11.43c-.86,2.31,2.84,3.31,3.69,1Z" transform="translate(0 0)" fill="#fcd9ac"/><path d="M201.65,370.92l-4.25-11.43c-.58-1.55-3.37-2.06-3.69,0l-4.49,29.11,2.81-1.14-59.91-32.57-8.62-4.71c-2.16-1.18-4.1,2.13-1.93,3.3l59.93,32.58,8.65,4.7c1,.53,2.62.13,2.81-1.14l4.49-29.11h-3.69L198,371.94c.85,2.29,4.55,1.3,3.69-1Z" transform="translate(0 0)" fill="#fcd9ac"/><path d="M211.34,163.93a112.55,112.55,0,0,1,1.16,16.61c-.05,2.58-.15,5.54-1.34,7.73a33.26,33.26,0,0,1-1.87,2.85c-2.84,4.2-9.39,13.24-5.52,19,1.46,2.2,3.86,3.17,6,3.81a39.67,39.67,0,0,0,12.32,1.25c1.26,0,1.26,2.49,0,2.51-6.61.11-23.66,0-21.09-14.15.73-4,2.74-7.63,4.72-10.83,1.48-2.4,3.87-4.85,4.47-7.67.83-4,.41-8.52.12-12.53-.19-2.66-.44-5.32-.79-8-.21-1.58,1.67-2.25,1.88-.67Z" transform="translate(0 0)" fill="#b27e5b"/><path d="M144.18,139.66l-2.36-2s6.14-12,29.87-14.27,27.46,7.17,27.46,7.17-1.18,10.33-6.1,8.17c0,0-8.78-8.68-20.56-7S158.5,131.62,144.18,139.66Z" transform="translate(0 0)" fill="#1c2872"/><path d="M282.2,139.66l2.36-2s-6.15-12-29.87-14.27-27.47,7.17-27.47,7.17,1.19,10.33,6.11,8.17c0,0,8.77-8.68,20.56-7S267.92,131.62,282.2,139.66Z" transform="translate(0 0)" fill="#1c2872"/><ellipse cx="169.82" cy="163.03" rx="5.23" ry="9.93" fill="#4c3422"/><ellipse cx="253.82" cy="163.03" rx="5.23" ry="9.93" fill="#4c3422"/><path d="M245.5,236.87c-9.6-7.44-32.57-3.79-32.57-3.79-18-4-30.08,3.79-30.08,3.79s-5.09,14.1,31.33,14.34C250.61,251,245.5,236.87,245.5,236.87Z" transform="translate(0 0)" fill="#b27e5b"/><path d="M218.5,242.67h0c16.43-.65,27.19-4.68,27.32-4.73l-.27-1.37c-.12.05-10.92,4.11-27.39,4.68h-7.7c-16.49-.57-27.29-4.63-27.42-4.68l-.51,1.37a97.41,97.41,0,0,0,27.32,4.73h.57c1,0,2.06.06,3.11.06h1.29c1,0,2.09,0,3.1-.06Z" transform="translate(0 0)" fill="#936b4f"/><path d="M236.33,257.06c-1,2.15-5.23,3.09-8.34,3.63a81.09,81.09,0,0,1-11,1.05c-.73,0-1.46,0-2.19.05-2.18,0-4.38-.12-6.55-.28a45.93,45.93,0,0,1-11.51-2c-1.58-.56-3-1.33-3.53-2.44s-3.24-.63-2.74.47c1.17,2.61,5.49,3.93,9.32,4.68a79.31,79.31,0,0,0,12.49,1.29c.7,0,1.39,0,2.09.05h.86c2.28,0,4.57-.15,6.83-.33,4.39-.36,9.14-.92,12.91-2.46,1.92-.77,3.51-1.83,4.14-3.23C239.56,256.43,236.82,256,236.33,257.06Z" transform="translate(0 0)" fill="#b27e5b"/><polygon points="225.07 463.91 201.59 463.91 201.59 435.31 212.35 435.31 225.07 435.31 225.07 463.91" fill="#86ccef"/><path d="M214.72,2.69c-126-26.6-111.89,152.65-111.89,152.65,8.6-5.87,16.41.28,16.41.28l8.4,33.91,8.45-1.32-2.88-26C126.76,55.9,200.85,53.4,213.5,53.74v.09l.91-.06.92.06v-.09C228,53.4,302.05,55.9,295.6,162.25l-2.88,26,9,1.4,9.43-34.25s7-4.78,15.57,1.09C326.67,156.45,340.74-23.91,214.72,2.69Z" transform="translate(0 0)" fill="#1c2872"/><rect x="142.84" y="67.33" width="5.47" height="18.69" transform="translate(0.81 154.87) rotate(-56.15)" fill="#86ccef"/><rect x="135.52" y="78.27" width="5.47" height="18.69" transform="translate(-11.52 153.63) rotate(-56.15)" fill="#e2a037"/><rect x="271.56" y="73.96" width="18.69" height="5.47" transform="translate(4.89 169.47) rotate(-33.85)" fill="#86ccef"/><rect x="278.89" y="84.88" width="18.69" height="5.47" transform="translate(0.05 175.4) rotate(-33.85)" fill="#e2a037"/><path d="M217.11,52.62a45.52,45.52,0,0,0,1.23-6.75c.29-2.68.57-6.53-1.71-8.49l.48,1.82c1.41-3.64,2.37-7.69,1.32-11.51S216.83,18.94,218,15c.69-2.31-2.92-3.3-3.61-1-1.34,4.44-.81,9.89.37,14.34.87,3.31,0,6.68-1.26,9.83A1.82,1.82,0,0,0,214,40c1.47,1.27.75,4.9.52,6.57a40.21,40.21,0,0,1-1,5c-.61,2.33,3,3.33,3.61,1Z" transform="translate(0 0)" fill="#0a1033"/><path d="M217.5,38.71a11.82,11.82,0,0,0-4.93-2.64c-5.37-1.75-11.36-1.63-16.91-1.09a114.33,114.33,0,0,0-17.41,3.25c-2.33.6-1.34,4.21,1,3.61,9.21-2.38,19.5-4.65,29.05-3a19.49,19.49,0,0,1,5.28,1.63,8.63,8.63,0,0,1,1.22.77c-.58-.44-.08-.08.06.07,1.64,1.77,4.28-.88,2.64-2.64Z" transform="translate(0 0)" fill="#0a1033"/><path d="M248.5,22.17a9.81,9.81,0,0,0-4.13-2.38c-4.31-1.55-9.22-1.46-13.71-1a85.8,85.8,0,0,0-14.1,2.88c-2.32.65-1.33,4.27,1,3.61,7.28-2.07,15.63-4.08,23.19-2.61a18.06,18.06,0,0,1,2.71.73l.56.22c-.46-.19.09,0,.18.09a7.19,7.19,0,0,0,.71.37l.61.4c.46.28-.3-.27,0,0a2.91,2.91,0,0,1,.31.3c1.56,1.84,4.19-.82,2.65-2.65Z" transform="translate(0 0)" fill="#0a1033"/><path d="M217.35,22.55A7.79,7.79,0,0,0,214,20c-3.62-1.63-7.73-1.64-11.59-1.13a55.56,55.56,0,0,0-11.21,2.86c-2.26.8-1.29,4.42,1,3.61a49.5,49.5,0,0,1,11.37-2.86,20.73,20.73,0,0,1,6.85.23c.41.1.83.21,1.23.35l.48.18c.46.17-.22-.12.1,0a16.67,16.67,0,0,1,1.48.85c.32.19-.27-.29.11.09l.33.32c.36.33.09.11,0-.06,1.34,2,4.58.11,3.23-1.89Z" transform="translate(0 0)" fill="#0a1033"/><path d="M240.86,37.13a7.93,7.93,0,0,0-3.36-2.59c-3.62-1.63-7.72-1.64-11.59-1.12a55.53,55.53,0,0,0-11.21,2.85c-2.25.8-1.28,4.42,1,3.61A50.27,50.27,0,0,1,227.08,37a20.67,20.67,0,0,1,6.84.23c.42.1.83.22,1.24.36l.47.17c.46.17-.22-.11.11,0,.52.26,1,.56,1.48.86.32.19-.28-.3.1.09l.33.32c.37.32.09.1,0-.07,1.33,2,4.58.12,3.23-1.89Z" transform="translate(0 0)" fill="#0a1033"/><path d="M312.72,105.86c-.08,15.74-1.08,31.51-1.89,47.23-.12,2.41,3.62,2.4,3.74,0,.82-15.72,1.81-31.49,1.89-47.23a1.87,1.87,0,0,0-3.74,0Z" transform="translate(0 0)" fill="#0a1033"/><path d="M319.19,127.33a48.18,48.18,0,0,1-.69,9.67c-.92,5.36-2.63,11.26-7.07,14.78a1.87,1.87,0,1,0,2.64,2.65c4.84-3.83,7-10.31,8-16.16a54.1,54.1,0,0,0,.93-10.93c-.07-2.4-3.81-2.41-3.75,0Z" transform="translate(0 0)" fill="#0a1033"/><path d="M114.32,105.86c.08,15.74,1.08,31.51,1.89,47.23.12,2.4,3.87,2.42,3.74,0-.81-15.72-1.81-31.49-1.88-47.23C118.07,103.45,114.31,103.44,114.32,105.86Z" transform="translate(0 0)" fill="#0a1033"/><path d="M107.85,127.33a53.38,53.38,0,0,0,.92,10.93c1,5.85,3.16,12.33,8,16.16a1.92,1.92,0,0,0,2.64,0,1.88,1.88,0,0,0,0-2.65c-4.44-3.52-6.15-9.42-7.07-14.78a49.63,49.63,0,0,1-.74-9.66c.07-2.41-3.68-2.41-3.74,0Z" transform="translate(0 0)" fill="#0a1033"/><path d="M144.5,363.85a101.4,101.4,0,0,0,8.27,22.09c7.06,14.31,17.19,27.46,30.7,36.2a69.58,69.58,0,0,0,30,10.54c1.39.16,1.38-2,0-2.18-32.56-3.79-54.65-30.32-64.65-59.84a76.28,76.28,0,0,1-2.18-7.39c-.31-1.37-2.41-.79-2.1.58Z" transform="translate(0 0)" fill="#fcd9ac"/><path d="M280.08,363.27c-4.89,21.6-18.33,43.7-36.72,56.17a67.44,67.44,0,0,1-30.1,11.06c-1.38.16-1.4,2.35,0,2.18,33.34-3.88,56-30.47,66.5-60.73a78.57,78.57,0,0,0,2.43-8.1C282.49,362.48,280.39,361.85,280.08,363.27Z" transform="translate(0 0)" fill="#fcd9ac"/><path d="M155.23,410.66s4.83-28-5-40.16c0,0,11-23.83.27-40l2.33-47.22s-17-11-26.8-59.28c0,0-6.64,2.38-16.38-6,0,0-14.52,32,0,50,0,0-9.21,10,1.14,30.36,0,0-8.82,10.08,10.34,32.19,0,0-12.7,4.81,8.48,35.09,0,0-15.39,10.25,4.94,43.94,0,0-13.77,15.69,11.12,65.65C145.73,475.14,167.71,440.86,155.23,410.66Z" transform="translate(0 0)" fill="#1c2872"/><path d="M270.87,410.66s-4.83-28,5-40.16c0,0-11.05-23.83-.27-40l-2.34-47.22s17.42-12.06,27.27-60.32c0,0,8.1,3.42,17.85-5,0,0,12.59,32-2,50,0,0,9.21,10-1.14,30.36,0,0,8.81,10.08-10.35,32.19,0,0,12.7,4.81-8.48,35.09,0,0,15.39,10.25-4.94,43.94,0,0,13.78,15.69-11.12,65.65C280.36,475.14,258.39,440.86,270.87,410.66Z" transform="translate(0 0)" fill="#1c2872"/><path d="M135.62,336.17c.25.54-.08-.23.12.27s.46,1.17.66,1.76a55.83,55.83,0,0,1,1.84,6.49,64.46,64.46,0,0,1,1,22.07c-.29,2.39,3.45,2.37,3.75,0a67.52,67.52,0,0,0-1.11-23.07,46.44,46.44,0,0,0-3-9.41c-1-2.18-4.23-.28-3.23,1.89Z" transform="translate(0 0)" fill="#0a1033"/><path d="M147.35,410.56a20.6,20.6,0,0,0,2.1-7.73c.74-6.66-1-13.32-3.71-19.36a1.89,1.89,0,0,0-2.56-.67,1.92,1.92,0,0,0-.67,2.56,33.75,33.75,0,0,1,3.2,17.47,21.32,21.32,0,0,1-1,4.46c-.09.25-.19.49-.28.74-.16.47.17-.31-.07.18l-.23.46c-1.18,2.11,2,4,3.23,1.89Z" transform="translate(0 0)" fill="#0a1033"/><path d="M145.79,412.53a20.21,20.21,0,0,0,.19-7.9c-.91-6.7-4.13-12.74-8.26-18a1.87,1.87,0,1,0-2.65,2.64c3.62,4.61,6.48,10.12,7.25,16a22,22,0,0,1,.1,4.87c0,.22-.12.94,0,.36a4.55,4.55,0,0,1-.1.61,3.43,3.43,0,0,1-.11.46c-.63,2.32,3,3.32,3.61,1Z" transform="translate(0 0)" fill="#0a1033"/><path d="M147.19,439a24.23,24.23,0,0,0,1.69-7.6,45.06,45.06,0,0,0-2.77-19c-.79-2.26-4.41-1.29-3.6,1a42.91,42.91,0,0,1,2.65,17.78,25.74,25.74,0,0,1-.79,4.6c-.12.45-.26.89-.41,1.33-.08.22-.37.9,0,0a2,2,0,0,0,.68,2.56,1.87,1.87,0,0,0,2.56-.67h0Z" transform="translate(0 0)" fill="#0a1033"/><path d="M128.23,259.64a108.11,108.11,0,0,0-4.1,22.28c-.9,10.81-.45,24.3,8.19,32.16,1.78,1.61,4.44-1,2.65-2.65-8.16-7.41-8-20.57-7-30.66a104.51,104.51,0,0,1,3.87-20.13C132.53,258.33,128.92,257.34,128.23,259.64Z" transform="translate(0 0)" fill="#0a1033"/><rect x="116.2" y="245.12" width="19.81" height="22.64" fill="#86ccef"/><rect x="125.19" y="220.01" width="1.84" height="8.48" fill="#86ccef"/><polygon points="116.2 245.12 126.11 226.91 136.01 245.12 116.2 245.12" fill="#e2a037"/><rect x="122.16" y="267.75" width="3.11" height="18.69" fill="#f48462"/><rect x="116.2" y="267.75" width="3.11" height="18.69" fill="#f48462"/><rect x="132.9" y="267.75" width="3.11" height="18.69" fill="#f48462"/><rect x="127.53" y="267.75" width="3.11" height="18.69" fill="#f48462"/><path d="M292.12,278.47a153.37,153.37,0,0,1,.55,20.22,94.12,94.12,0,0,1-1.83,16.57c-1,4.59-2.43,9.53-5.68,13.08-1.62,1.78,1,4.43,2.65,2.65,7.16-7.84,8.07-20.54,8.53-30.61a152.6,152.6,0,0,0-.47-21.91C295.63,276.1,291.87,276.08,292.12,278.47Z" transform="translate(0 0)" fill="#0a1033"/><path d="M279.8,414.15a19.72,19.72,0,0,0-2.36,7.28,37.49,37.49,0,0,0,2.63,19.41,1.93,1.93,0,0,0,2.3,1.31,1.88,1.88,0,0,0,1.31-2.3c-2.21-5.56-3.55-11.69-2.59-17.68a25.45,25.45,0,0,1,1.28-4.79c.18-.48-.08.13.17-.38l.24-.51c.08-.15.16-.3.26-.45,1.27-2.05-2-3.93-3.24-1.89Z" transform="translate(0 0)" fill="#0a1033"/><path d="M281.5,412.26a19.75,19.75,0,0,0-.55,7.65,37.54,37.54,0,0,0,7.23,18.2c1.38,1.95,4.63.08,3.23-1.89-3.48-4.87-6.24-10.51-6.74-16.56a26,26,0,0,1-.07-2.79,6.91,6.91,0,0,1,.07-1.2c0-.18.13-1.07.05-.57a9.73,9.73,0,0,1,.39-1.84c.74-2.3-2.87-3.28-3.61-1Z" transform="translate(0 0)" fill="#0a1033"/><path d="M286,401.79a24.52,24.52,0,0,0,1.7-7.6,45.22,45.22,0,0,0-2.77-19c-.8-2.26-4.41-1.29-3.61,1A42.91,42.91,0,0,1,284,394a26.66,26.66,0,0,1-.79,4.6c-.13.45-.27.89-.41,1.33-.08.22-.38.9,0,0a1.92,1.92,0,0,0,.67,2.56,1.87,1.87,0,0,0,2.56-.67h0Z" transform="translate(0 0)" fill="#0a1033"/><rect x="130.64" y="409.62" width="26.96" height="5.47" fill="#86ccef"/><rect x="289.86" y="245.12" width="19.81" height="22.64" fill="#86ccef"/><rect x="298.85" y="220.01" width="1.84" height="8.48" fill="#86ccef"/><polygon points="289.87 245.12 299.77 226.91 309.68 245.12 289.87 245.12" fill="#e2a037"/><rect x="295.82" y="267.75" width="3.11" height="18.69" fill="#f48462"/><rect x="289.86" y="267.75" width="3.11" height="18.69" fill="#f48462"/><rect x="306.57" y="267.75" width="3.11" height="18.69" fill="#f48462"/><rect x="301.2" y="267.75" width="3.11" height="18.69" fill="#f48462"/><rect x="267.03" y="409.62" width="26.96" height="5.47" fill="#86ccef"/><rect x="212.27" y="429.55" width="1.84" height="8.48" fill="#fcd9ac"/><path d="M49.13,399.57c3.93,3.84,7,8.81,9.74,13.55,7.85,13.6,12.77,28.85,15.71,44.29a213.06,213.06,0,0,1,3.47,40.8,1.82,1.82,0,1,0,3.64,0c.14-33-5.65-69.78-26-96.59a40.81,40.81,0,0,0-4-4.62,1.84,1.84,0,0,0-2.57,2.62Z" transform="translate(0 0)" fill="#d36e57"/><path d="M373.83,397c-4.2,4.11-7.53,9.45-10.44,14.54-8,13.95-13.07,29.61-16,45.44a218.92,218.92,0,0,0-3.51,41.28,1.82,1.82,0,0,0,3.64,0c-.14-32.12,5.36-68.3,25.32-94.42a39.12,39.12,0,0,1,3.6-4.22,1.84,1.84,0,0,0-2.57-2.62Z" transform="translate(0 0)" fill="#d36e57"/></svg>